<svg width="4747" height="404" viewBox="0 0 4747 404" fill="none" xmlns="http://www.w3.org/2000/svg">
<path d="M2 189.682C303.5 81.6825 783.5 453.682 1315.5 321.682C1847.5 189.682 1871.5 69.6825 2175.5 75.6825C2576.5 75.6825 2692.8 347.055 3204 321.682C3843 289.967 3687.5 -8.53333 4746 6.46667" stroke="white" stroke-width="10"/>
<path d="M2 218.682C303.5 110.682 783.5 482.682 1315.5 350.682C1847.5 218.682 1871.5 98.6825 2175.5 104.683C2576.5 104.683 2692.8 376.055 3204 350.682C3843 318.967 3687.5 20.4667 4746 35.4667" stroke="white" stroke-width="3"/>
<path d="M2 241.682C303.5 133.682 783.5 505.682 1315.5 373.682C1847.5 241.682 1871.5 121.683 2175.5 127.683C2576.5 127.683 2692.8 399.055 3204 373.682C3843 341.967 3687.5 43.4667 4746 58.4667" stroke="white" stroke-width="3"/>
</svg>
